<svg width="23" height="25" viewBox="0 0 23 25" fill="none" xmlns="http://www.w3.org/2000/svg">
<path d="M20.0938 10.9375H18.9219V7.42188C18.9219 3.33008 15.5918 0 11.5 0C7.4082 0 4.07812 3.33008 4.07812 7.42188V10.9375H2.90625C1.6123 10.9375 0.5625 11.9873 0.5625 13.2812V22.6562C0.5625 23.9502 1.6123 25 2.90625 25H20.0938C21.3877 25 22.4375 23.9502 22.4375 22.6562V13.2812C22.4375 11.9873 21.3877 10.9375 20.0938 10.9375ZM15.0156 10.9375H7.98438V7.42188C7.98438 5.4834 9.56152 3.90625 11.5 3.90625C13.4385 3.90625 15.0156 5.4834 15.0156 7.42188V10.9375Z" fill="#424242"/>
</svg>
