<svg width="189" height="115" viewBox="0 0 189 115" fill="none" xmlns="http://www.w3.org/2000/svg">
<path d="M41.616 57.032C41.168 57.576 40.736 58.008 40.32 58.328C39.904 58.648 39.312 58.808 38.544 58.808C37.808 58.808 37.136 58.632 36.528 58.28C35.952 57.928 35.296 57.544 34.56 57.128C33.824 56.68 32.96 56.28 31.968 55.928C30.976 55.576 29.744 55.4 28.272 55.4C26.448 55.4 24.864 55.736 23.52 56.408C22.208 57.08 21.12 58.04 20.256 59.288C19.392 60.536 18.752 62.072 18.336 63.896C17.92 65.688 17.712 67.72 17.712 69.992C17.712 74.76 18.624 78.424 20.448 80.984C22.304 83.544 24.848 84.824 28.08 84.824C29.808 84.824 31.168 84.616 32.16 84.2C33.184 83.752 34.048 83.272 34.752 82.76C35.456 82.216 36.096 81.72 36.672 81.272C37.28 80.824 38.032 80.6 38.928 80.6C40.112 80.6 41.008 81.032 41.616 81.896L45.936 87.224C44.4 88.984 42.784 90.424 41.088 91.544C39.392 92.632 37.648 93.496 35.856 94.136C34.096 94.744 32.32 95.16 30.528 95.384C28.736 95.64 26.992 95.768 25.296 95.768C22.256 95.768 19.344 95.192 16.56 94.04C13.808 92.888 11.376 91.224 9.264 89.048C7.184 86.84 5.52 84.136 4.272 80.936C3.056 77.736 2.448 74.088 2.448 69.992C2.448 66.408 2.976 63.064 4.032 59.96C5.12 56.824 6.704 54.12 8.784 51.848C10.896 49.544 13.488 47.736 16.56 46.424C19.664 45.112 23.248 44.456 27.312 44.456C31.216 44.456 34.64 45.08 37.584 46.328C40.528 47.576 43.184 49.4 45.552 51.8L41.616 57.032ZM96.3675 45.224V95H87.1515C85.2955 95 84.0795 94.168 83.5035 92.504L82.6395 89.624C81.6795 90.552 80.6875 91.4 79.6635 92.168C78.6395 92.904 77.5355 93.544 76.3515 94.088C75.1995 94.6 73.9355 95 72.5595 95.288C71.2155 95.608 69.7435 95.768 68.1435 95.768C65.4235 95.768 63.0075 95.304 60.8955 94.376C58.8155 93.416 57.0555 92.088 55.6155 90.392C54.1755 88.696 53.0875 86.696 52.3515 84.392C51.6155 82.088 51.2475 79.56 51.2475 76.808V45.224H66.1275V76.808C66.1275 79.272 66.6875 81.176 67.8075 82.52C68.9275 83.864 70.5755 84.536 72.7515 84.536C74.3835 84.536 75.9035 84.2 77.3115 83.528C78.7515 82.824 80.1435 81.88 81.4875 80.696V45.224H96.3675ZM120.398 52.904C121.934 50.216 123.694 48.104 125.677 46.568C127.694 45.032 129.998 44.264 132.59 44.264C134.83 44.264 136.654 44.792 138.062 45.848L137.102 56.792C136.942 57.496 136.67 57.976 136.286 58.232C135.934 58.488 135.438 58.616 134.798 58.616C134.542 58.616 134.206 58.6 133.79 58.568C133.374 58.536 132.942 58.504 132.494 58.472C132.046 58.408 131.582 58.36 131.102 58.328C130.654 58.264 130.238 58.232 129.854 58.232C127.678 58.232 125.934 58.808 124.622 59.96C123.342 61.112 122.254 62.712 121.358 64.76V95H106.478V45.224H115.31C116.046 45.224 116.654 45.288 117.134 45.416C117.646 45.544 118.062 45.752 118.382 46.04C118.734 46.296 118.99 46.648 119.15 47.096C119.342 47.544 119.502 48.088 119.63 48.728L120.398 52.904ZM173.25 64.136C173.25 62.952 173.09 61.8 172.77 60.68C172.482 59.56 171.986 58.568 171.282 57.704C170.61 56.808 169.714 56.088 168.594 55.544C167.474 55 166.114 54.728 164.514 54.728C161.698 54.728 159.49 55.544 157.89 57.176C156.29 58.776 155.234 61.096 154.722 64.136H173.25ZM154.53 72.776C155.01 76.936 156.274 79.96 158.322 81.848C160.37 83.704 163.01 84.632 166.242 84.632C167.97 84.632 169.458 84.424 170.706 84.008C171.954 83.592 173.058 83.128 174.018 82.616C175.01 82.104 175.906 81.64 176.706 81.224C177.538 80.808 178.402 80.6 179.298 80.6C180.482 80.6 181.378 81.032 181.986 81.896L186.306 87.224C184.77 88.984 183.106 90.424 181.314 91.544C179.554 92.632 177.73 93.496 175.842 94.136C173.986 94.744 172.114 95.16 170.226 95.384C168.37 95.64 166.594 95.768 164.898 95.768C161.41 95.768 158.13 95.208 155.058 94.088C152.018 92.936 149.346 91.24 147.042 89C144.77 86.76 142.962 83.976 141.618 80.648C140.306 77.32 139.65 73.448 139.65 69.032C139.65 65.704 140.21 62.552 141.33 59.576C142.482 56.6 144.114 53.992 146.226 51.752C148.37 49.512 150.946 47.736 153.954 46.424C156.994 45.112 160.418 44.456 164.226 44.456C167.522 44.456 170.53 44.968 173.25 45.992C176.002 47.016 178.354 48.504 180.306 50.456C182.29 52.408 183.826 54.808 184.914 57.656C186.034 60.472 186.594 63.672 186.594 67.256C186.594 68.376 186.546 69.288 186.45 69.992C186.354 70.696 186.178 71.256 185.922 71.672C185.666 72.088 185.314 72.376 184.866 72.536C184.45 72.696 183.906 72.776 183.234 72.776H154.53Z" fill="white"/>
<path d="M18.088 20.672C18 20.816 17.908 20.924 17.812 20.996C17.716 21.06 17.596 21.092 17.452 21.092C17.3 21.092 17.128 21.028 16.936 20.9C16.752 20.772 16.52 20.632 16.24 20.48C15.968 20.32 15.644 20.176 15.268 20.048C14.892 19.912 14.444 19.844 13.924 19.844C13.444 19.844 13.02 19.904 12.652 20.024C12.292 20.144 11.988 20.312 11.74 20.528C11.492 20.744 11.304 21 11.176 21.296C11.056 21.584 10.996 21.9 10.996 22.244C10.996 22.684 11.112 23.052 11.344 23.348C11.576 23.636 11.88 23.884 12.256 24.092C12.64 24.3 13.076 24.484 13.564 24.644C14.052 24.796 14.548 24.96 15.052 25.136C15.564 25.312 16.064 25.512 16.552 25.736C17.04 25.96 17.472 26.244 17.848 26.588C18.232 26.932 18.54 27.352 18.772 27.848C19.004 28.344 19.12 28.948 19.12 29.66C19.12 30.428 18.988 31.148 18.724 31.82C18.46 32.492 18.076 33.08 17.572 33.584C17.076 34.08 16.46 34.472 15.724 34.76C14.996 35.048 14.164 35.192 13.228 35.192C12.676 35.192 12.136 35.136 11.608 35.024C11.088 34.92 10.588 34.772 10.108 34.58C9.636 34.38 9.192 34.14 8.776 33.86C8.36 33.58 7.988 33.268 7.66 32.924L8.476 31.58C8.548 31.468 8.64 31.38 8.752 31.316C8.864 31.252 8.988 31.22 9.124 31.22C9.308 31.22 9.512 31.308 9.736 31.484C9.96 31.652 10.228 31.84 10.54 32.048C10.86 32.248 11.244 32.436 11.692 32.612C12.14 32.78 12.676 32.864 13.3 32.864C14.316 32.864 15.1 32.616 15.652 32.12C16.212 31.624 16.492 30.94 16.492 30.068C16.492 29.58 16.376 29.184 16.144 28.88C15.912 28.568 15.604 28.308 15.22 28.1C14.844 27.892 14.412 27.716 13.924 27.572C13.436 27.428 12.94 27.276 12.436 27.116C11.932 26.948 11.436 26.756 10.948 26.54C10.46 26.316 10.024 26.028 9.64 25.676C9.264 25.316 8.96 24.876 8.728 24.356C8.496 23.828 8.38 23.172 8.38 22.388C8.38 21.764 8.5 21.16 8.74 20.576C8.988 19.992 9.344 19.476 9.808 19.028C10.28 18.572 10.86 18.208 11.548 17.936C12.236 17.664 13.02 17.528 13.9 17.528C14.892 17.528 15.8 17.684 16.624 17.996C17.456 18.308 18.172 18.752 18.772 19.328L18.088 20.672ZM40.5376 17.72V35H38.0656V23.156C38.0656 22.964 38.0696 22.756 38.0776 22.532C38.0936 22.3 38.1136 22.068 38.1376 21.836L32.5816 32.096C32.3656 32.52 32.0336 32.732 31.5856 32.732H31.1896C30.7336 32.732 30.4016 32.52 30.1936 32.096L24.5536 21.812C24.5776 22.044 24.5936 22.276 24.6016 22.508C24.6176 22.74 24.6256 22.956 24.6256 23.156V35H22.1536V17.72H24.2536C24.5016 17.72 24.6936 17.744 24.8296 17.792C24.9656 17.832 25.0896 17.964 25.2016 18.188L30.7456 28.232C30.8656 28.464 30.9776 28.704 31.0816 28.952C31.1936 29.192 31.2936 29.44 31.3816 29.696C31.4776 29.44 31.5776 29.188 31.6816 28.94C31.7936 28.684 31.9096 28.44 32.0296 28.208L37.4896 18.188C37.6016 17.964 37.7256 17.832 37.8616 17.792C37.9976 17.744 38.1896 17.72 38.4376 17.72H40.5376ZM53.7741 28.52L51.3981 22.208C51.2061 21.72 51.0101 21.1 50.8101 20.348C50.7221 20.724 50.6261 21.072 50.5221 21.392C50.4181 21.704 50.3221 21.98 50.2341 22.22L47.8581 28.52H53.7741ZM59.0901 35H56.9181C56.6701 35 56.4701 34.94 56.3181 34.82C56.1661 34.692 56.0501 34.536 55.9701 34.352L54.5301 30.536H47.0901L45.6501 34.352C45.5861 34.512 45.4741 34.66 45.3141 34.796C45.1541 34.932 44.9541 35 44.7141 35H42.5421L49.3941 17.72H52.2381L59.0901 35ZM66.1227 26C66.7627 26 67.3227 25.924 67.8027 25.772C68.2827 25.612 68.6827 25.392 69.0027 25.112C69.3227 24.832 69.5627 24.5 69.7227 24.116C69.8827 23.724 69.9627 23.292 69.9627 22.82C69.9627 21.876 69.6507 21.156 69.0267 20.66C68.4027 20.164 67.4587 19.916 66.1947 19.916H63.9147V26H66.1227ZM74.2587 35H71.7507C71.2547 35 70.8947 34.808 70.6707 34.424L66.6387 28.604C66.5027 28.404 66.3547 28.26 66.1947 28.172C66.0347 28.084 65.7947 28.04 65.4747 28.04H63.9147V35H61.1067V17.72H66.1947C67.3307 17.72 68.3067 17.836 69.1227 18.068C69.9467 18.3 70.6227 18.632 71.1507 19.064C71.6787 19.488 72.0667 20 72.3147 20.6C72.5707 21.2 72.6987 21.868 72.6987 22.604C72.6987 23.204 72.6067 23.764 72.4227 24.284C72.2467 24.804 71.9867 25.276 71.6427 25.7C71.3067 26.124 70.8907 26.492 70.3947 26.804C69.8987 27.116 69.3347 27.36 68.7027 27.536C69.0467 27.744 69.3427 28.036 69.5907 28.412L74.2587 35ZM87.7174 20.06H82.3294V35H79.5334V20.06H74.1334V17.72H87.7174V20.06Z" fill="white"/>
</svg>
