<svg width="26" height="20" viewBox="0 0 26 20" fill="none" xmlns="http://www.w3.org/2000/svg">
<path d="M24.9214 6.7721C25.1142 6.62443 25.4008 6.76257 25.4008 6.996V16.7378C25.4008 18.0002 24.3383 19.0244 23.0286 19.0244H2.46938C1.15972 19.0244 0.097168 18.0002 0.097168 16.7378V7.00076C0.097168 6.76257 0.378869 6.62919 0.576553 6.77686C1.68359 7.60575 3.1514 8.65853 8.19236 12.1884C9.23514 12.9221 10.9945 14.4655 12.749 14.456C14.5133 14.4703 16.3073 12.8935 17.3106 12.1884C22.3515 8.65853 23.8144 7.60099 24.9214 6.7721ZM12.749 12.9268C13.8956 12.9459 15.5462 11.5358 16.3765 10.9546C22.9347 6.36719 23.4338 5.96703 24.9461 4.82374C25.2328 4.60937 25.4008 4.27591 25.4008 3.9234V3.01829C25.4008 1.7559 24.3383 0.731705 23.0286 0.731705H2.46938C1.15972 0.731705 0.097168 1.7559 0.097168 3.01829V3.9234C0.097168 4.27591 0.2652 4.60461 0.551843 4.82374C2.06413 5.96227 2.56329 6.36719 9.12148 10.9546C9.95175 11.5358 11.6024 12.9459 12.749 12.9268Z" fill="#FDFFB6"/>
</svg>
